<?xml version="1.0" encoding="UTF-8" standalone="no"?><svg xmlns="http://www.w3.org/2000/svg" xmlns:xlink="http://www.w3.org/1999/xlink" contentStyleType="text/css" height="343px" preserveAspectRatio="none" style="width:454px;height:343px;background:#FFFFFF;" version="1.1" viewBox="0 0 454 343" width="454px" zoomAndPan="magnify"><defs/><g><text fill="#000000" font-family="sans-serif" font-size="12" lengthAdjust="spacing" textLength="3" x="5" y="17.457"> </text><text fill="#000000" font-family="sans-serif" font-size="12" lengthAdjust="spacing" textLength="3" x="5" y="132.5508"> </text><rect fill="#E2E2F0" height="5" style="stroke:#181818;stroke-width:1.0;" width="433" x="13" y="230.2344"/><path d="M63.5,90.1406 L63.5,125.1406 " fill="none" style="stroke:#181818;stroke-width:1.0;"/><path d="M63.5,125.1406 L63.5,160.1406 " fill="none" style="stroke:#181818;stroke-width:1.0;"/><path d="M61.5,195.2344 L61.5,230.2344 " fill="none" style="stroke:#181818;stroke-width:1.0;"/><path d="M65.5,235.2344 L65.5,265.2344 " fill="none" style="stroke:#181818;stroke-width:1.0;"/><path d="M159,235.2344 L159,265.2344 " fill="none" style="stroke:#181818;stroke-width:1.0;"/><path d="M245,235.2344 L245,265.2344 " fill="none" style="stroke:#181818;stroke-width:1.0;"/><path d="M325,235.2344 L325,265.2344 " fill="none" style="stroke:#181818;stroke-width:1.0;"/><path d="M405,235.2344 L405,265.2344 " fill="none" style="stroke:#181818;stroke-width:1.0;"/><path d="M36.3576,53.6736 C41.4548,47.2179 46.1784,46.7197 51.7719,53.0765 C55.182,46.716 59.8009,45.3774 65.0131,51.102 C69.1534,45.5664 74.0959,45.8966 77.3719,52.0183 C82.4716,46.4101 88.5895,45.925 91.8904,53.936 C100.1874,57.9584 99.8199,63.9861 92.892,69.0194 C100.2032,72.8959 99.0209,78.261 93.1105,82.3542 C91.2088,89.7313 85.4438,92.337 79.2948,86.9521 C76.9313,95.4318 71.3899,95.1495 65.563,90.6032 C60.006,96.8763 54.1945,94.4093 51.1387,87.8021 C45.0753,94.126 38.5842,90.1552 36.8789,83.1423 C27.7985,83.3427 23.1501,76.9014 28.7389,68.785 C24.454,61.6875 26.205,53.492 36.3576,53.6736 " fill="#F1F1F1" style="stroke:#181818;stroke-width:0.5;"/><text fill="#000000" font-family="sans-serif" font-size="12" lengthAdjust="spacing" textLength="41" x="43" y="72.5039">internet</text><rect fill="#F1F1F1" height="35.0938" style="stroke:#181818;stroke-width:0.5;" width="68" x="29.5" y="160.1406"/><text fill="#000000" font-family="sans-serif" font-size="12" lengthAdjust="spacing" textLength="48" x="39.5" y="182.5977">移动光猫</text><rect fill="#F1F1F1" height="35.0938" style="stroke:#181818;stroke-width:0.5;" width="56" x="35.5" y="265.2344"/><text fill="#000000" font-family="sans-serif" font-size="12" lengthAdjust="spacing" textLength="36" x="45.5" y="287.6914">路由器</text><rect fill="#F1F1F1" height="35.0938" style="stroke:#181818;stroke-width:0.5;" width="56" x="129" y="265.2344"/><text fill="#000000" font-family="sans-serif" font-size="12" lengthAdjust="spacing" textLength="36" x="139" y="287.6914">笔记本</text><rect fill="#F1F1F1" height="35.0938" style="stroke:#181818;stroke-width:0.5;" width="56" x="215" y="265.2344"/><text fill="#000000" font-family="sans-serif" font-size="12" lengthAdjust="spacing" textLength="36" x="225" y="287.6914">摄像头</text><rect fill="#F1F1F1" height="35.0938" style="stroke:#181818;stroke-width:0.5;" width="44" x="301" y="265.2344"/><text fill="#000000" font-family="sans-serif" font-size="12" lengthAdjust="spacing" textLength="24" x="311" y="287.6914">台灯</text><rect fill="#F1F1F1" height="35.0938" style="stroke:#181818;stroke-width:0.5;" width="56" x="375" y="265.2344"/><text fill="#000000" font-family="sans-serif" font-size="12" lengthAdjust="spacing" textLength="36" x="385" y="287.6914">服务器</text><!--MD5=[0439964e3f4c748b09f8db4fe2f07662]
@startuml
nwdiag {

    internet [ shape = cloud];

    internet - - 移动光猫;



    network {

        移动光猫 ;

    	路由器;

        笔记本 ;

        摄像头 ;

        台灯 ;

        服务器 ;

    }

}

@enduml

PlantUML version 1.2022.2(Sun Mar 06 00:30:19 CST 2022)
(GPL source distribution)
Java Runtime: Java(TM) SE Runtime Environment
JVM: Java HotSpot(TM) 64-Bit Server VM
Default Encoding: UTF-8
Language: zh
Country: CN
--></g></svg>