<?xml version="1.0" encoding="UTF-8" standalone="no"?><svg xmlns="http://www.w3.org/2000/svg" xmlns:xlink="http://www.w3.org/1999/xlink" contentStyleType="text/css" height="448px" preserveAspectRatio="none" style="width:425px;height:448px;background:#FFFFFF;" version="1.1" viewBox="0 0 425 448" width="425px" zoomAndPan="magnify"><defs/><g><text fill="#000000" font-family="sans-serif" font-size="12" lengthAdjust="spacing" textLength="3" x="62" y="17.457"> </text><text fill="#000000" font-family="sans-serif" font-size="12" lengthAdjust="spacing" textLength="3" x="62" y="132.5508"> </text><text fill="#000000" font-family="sans-serif" font-size="12" lengthAdjust="spacing" textLength="60" x="5" y="342.7383">房间局域网</text><rect fill="#E2E2F0" height="5" style="stroke:#181818;stroke-width:1.0;" width="101" x="70" y="230.2344"/><rect fill="#E2E2F0" height="5" style="stroke:#181818;stroke-width:1.0;" width="347" x="70" y="335.3281"/><path d="M120.5,90.1406 L120.5,125.1406 " fill="none" style="stroke:#181818;stroke-width:1.0;"/><path d="M120.5,125.1406 L120.5,160.1406 " fill="none" style="stroke:#181818;stroke-width:1.0;"/><path d="M118.5,195.2344 L118.5,230.2344 " fill="none" style="stroke:#181818;stroke-width:1.0;"/><path d="M122.5,235.2344 L122.5,265.2344 " fill="none" style="stroke:#181818;stroke-width:1.0;"/><path d="M122.5,300.3281 L122.5,335.3281 " fill="none" style="stroke:#181818;stroke-width:1.0;"/><path d="M118.5,340.3281 L118.5,370.3281 " fill="none" style="stroke:#181818;stroke-width:1.0;"/><path d="M212,340.3281 L212,370.3281 " fill="none" style="stroke:#181818;stroke-width:1.0;"/><path d="M292,340.3281 L292,370.3281 " fill="none" style="stroke:#181818;stroke-width:1.0;"/><path d="M372,340.3281 L372,370.3281 " fill="none" style="stroke:#181818;stroke-width:1.0;"/><path d="M93.3576,53.6736 C98.4548,47.2179 103.1784,46.7197 108.7719,53.0765 C112.182,46.716 116.8009,45.3774 122.0131,51.102 C126.1534,45.5664 131.0959,45.8966 134.3719,52.0183 C139.4716,46.4101 145.5895,45.925 148.8904,53.936 C157.1874,57.9584 156.8199,63.9861 149.892,69.0194 C157.2032,72.8959 156.0209,78.261 150.1105,82.3542 C148.2088,89.7313 142.4438,92.337 136.2948,86.9521 C133.9313,95.4318 128.3899,95.1495 122.563,90.6032 C117.006,96.8763 111.1945,94.4093 108.1387,87.8021 C102.0753,94.126 95.5842,90.1552 93.8789,83.1423 C84.7985,83.3427 80.1501,76.9014 85.7389,68.785 C81.454,61.6875 83.205,53.492 93.3576,53.6736 " fill="#F1F1F1" style="stroke:#181818;stroke-width:0.5;"/><text fill="#000000" font-family="sans-serif" font-size="12" lengthAdjust="spacing" textLength="41" x="100" y="72.5039">internet</text><rect fill="#F1F1F1" height="35.0938" style="stroke:#181818;stroke-width:0.5;" width="68" x="86.5" y="160.1406"/><text fill="#000000" font-family="sans-serif" font-size="12" lengthAdjust="spacing" textLength="48" x="96.5" y="182.5977">移动光猫</text><rect fill="#F1F1F1" height="35.0938" style="stroke:#181818;stroke-width:0.5;" width="56" x="92.5" y="265.2344"/><text fill="#000000" font-family="sans-serif" font-size="12" lengthAdjust="spacing" textLength="36" x="102.5" y="287.6914">路由器</text><rect fill="#F1F1F1" height="35.0938" style="stroke:#181818;stroke-width:0.5;" width="56" x="92.5" y="370.3281"/><text fill="#000000" font-family="sans-serif" font-size="12" lengthAdjust="spacing" textLength="36" x="102.5" y="392.7852">笔记本</text><rect fill="#F1F1F1" height="35.0938" style="stroke:#181818;stroke-width:0.5;" width="56" x="186" y="370.3281"/><text fill="#000000" font-family="sans-serif" font-size="12" lengthAdjust="spacing" textLength="36" x="196" y="392.7852">摄像头</text><rect fill="#F1F1F1" height="35.0938" style="stroke:#181818;stroke-width:0.5;" width="44" x="272" y="370.3281"/><text fill="#000000" font-family="sans-serif" font-size="12" lengthAdjust="spacing" textLength="24" x="282" y="392.7852">台灯</text><rect fill="#F1F1F1" height="35.0938" style="stroke:#181818;stroke-width:0.5;" width="56" x="346" y="370.3281"/><text fill="#000000" font-family="sans-serif" font-size="12" lengthAdjust="spacing" textLength="36" x="356" y="392.7852">服务器</text><!--MD5=[7779fb0ab6ad1267f7409f74a0afe091]
@startuml
nwdiag {

    internet [ shape = cloud];

    internet - - 移动光猫;



    network {

        移动光猫 ;

        路由器 ;

    }

    network 房间局域网 {

    	路由器;

        笔记本 ;

        摄像头 ;

        台灯 ;

        服务器 ;

    }

}

@enduml

PlantUML version 1.2022.2(Sun Mar 06 00:30:19 CST 2022)
(GPL source distribution)
Java Runtime: Java(TM) SE Runtime Environment
JVM: Java HotSpot(TM) 64-Bit Server VM
Default Encoding: UTF-8
Language: zh
Country: CN
--></g></svg>