<?xml version="1.0" encoding="UTF-8" standalone="no"?><svg xmlns="http://www.w3.org/2000/svg" xmlns:xlink="http://www.w3.org/1999/xlink" contentScriptType="application/ecmascript" contentStyleType="text/css" height="2386px" preserveAspectRatio="none" style="width:1951px;height:2386px;background:#FFFFFF;" version="1.1" viewBox="0 0 1951 2386" width="1951px" zoomAndPan="magnify"><defs><filter height="300%" id="ffe1n7boy5g47" width="300%" x="-1" y="-1"><feGaussianBlur result="blurOut" stdDeviation="2.0"/><feColorMatrix in="blurOut" result="blurOut2" type="matrix" values="0 0 0 0 0 0 0 0 0 0 0 0 0 0 0 0 0 0 .4 0"/><feOffset dx="4.0" dy="4.0" in="blurOut2" result="blurOut3"/><feBlend in="SourceGraphic" in2="blurOut3" mode="normal"/></filter></defs><g><rect fill="#FEFECE" filter="url(#ffe1n7boy5g47)" height="39.1201" rx="12.5" ry="12.5" style="stroke:#A80036;stroke-width:1.5;" width="96" x="10" y="1172.8423"/><text fill="#000000" font-family="sans-serif" font-size="14" lengthAdjust="spacing" textLength="76" x="20" y="1198.8862">HarmonyOS</text><rect fill="#FEFECE" filter="url(#ffe1n7boy5g47)" height="39.1201" rx="12.5" ry="12.5" style="stroke:#A80036;stroke-width:1.5;" width="76" x="156" y="20"/><text fill="#000000" font-family="sans-serif" font-size="14" lengthAdjust="spacing" textLength="56" x="166" y="46.0439">系统功能</text><rect fill="#FEFECE" filter="url(#ffe1n7boy5g47)" height="39.1201" rx="12.5" ry="12.5" style="stroke:#A80036;stroke-width:1.5;" width="690" x="282" y="20"/><text fill="#000000" font-family="sans-serif" font-size="14" lengthAdjust="spacing" textLength="670" x="292" y="46.0439">(系统,子系统,功能/模块)逐级展开,在多设备部署场景下支持根据实际需求裁剪某些非必要的子系统或功能模块</text><path d="M232,39.5601 L242,39.5601 C257,39.5601 257,39.5601 272,39.5601 L282,39.5601 " fill="none" style="stroke:#A80036;stroke-width:1.0;"/><path d="M106,1192.4023 L116,1192.4023 C131,1192.4023 131,39.5601 146,39.5601 L156,39.5601 " fill="none" style="stroke:#A80036;stroke-width:1.0;"/><rect fill="#FEFECE" filter="url(#ffe1n7boy5g47)" height="39.1201" rx="12.5" ry="12.5" style="stroke:#A80036;stroke-width:1.5;" width="76" x="156" y="1202.4023"/><text fill="#000000" font-family="sans-serif" font-size="14" lengthAdjust="spacing" textLength="56" x="166" y="1228.4463">分层架构</text><rect fill="#FEFECE" filter="url(#ffe1n7boy5g47)" height="39.1201" rx="12.5" ry="12.5" style="stroke:#A80036;stroke-width:1.5;" width="62" x="282" y="226.9204"/><text fill="#000000" font-family="sans-serif" font-size="14" lengthAdjust="spacing" textLength="42" x="292" y="252.9644">内核层</text><rect fill="#FEFECE" filter="url(#ffe1n7boy5g47)" height="39.1201" rx="12.5" ry="12.5" style="stroke:#A80036;stroke-width:1.5;" width="90" x="394" y="197.3604"/><text fill="#000000" font-family="sans-serif" font-size="14" lengthAdjust="spacing" textLength="70" x="404" y="223.4043">内核子系统</text><rect fill="#FEFECE" filter="url(#ffe1n7boy5g47)" height="39.1201" rx="12.5" ry="12.5" style="stroke:#A80036;stroke-width:1.5;" width="602" x="534" y="79.1201"/><text fill="#000000" font-family="sans-serif" font-size="14" lengthAdjust="spacing" textLength="582" x="544" y="105.1641">采用多内核设计,支持针对不同资源受限设备,选用合适的OS内核,为上层提供基础操作系统能力.</text><path d="M484,216.9204 L494,216.9204 C509,216.9204 509,98.6802 524,98.6802 L534,98.6802 " fill="none" style="stroke:#A80036;stroke-width:1.0;"/><rect fill="#FEFECE" filter="url(#ffe1n7boy5g47)" height="39.1201" rx="12.5" ry="12.5" style="stroke:#A80036;stroke-width:1.5;" width="267" x="534" y="138.2402"/><text fill="#000000" font-family="sans-serif" font-size="14" lengthAdjust="spacing" textLength="247" x="544" y="164.2842">内核抽象层(KAL,Kernel Abstract Layer)</text><path d="M484,216.9204 L494,216.9204 C509,216.9204 509,157.8003 524,157.8003 L534,157.8003 " fill="none" style="stroke:#A80036;stroke-width:1.0;"/><rect fill="#FEFECE" filter="url(#ffe1n7boy5g47)" height="39.1201" rx="12.5" ry="12.5" style="stroke:#A80036;stroke-width:1.5;" width="98" x="534" y="197.3604"/><text fill="#000000" font-family="sans-serif" font-size="14" lengthAdjust="spacing" textLength="78" x="544" y="223.4043">Linux Kernel</text><path d="M484,216.9204 L494,216.9204 C509,216.9204 509,216.9204 524,216.9204 L534,216.9204 " fill="none" style="stroke:#A80036;stroke-width:1.0;"/><rect fill="#FEFECE" filter="url(#ffe1n7boy5g47)" height="39.1201" rx="12.5" ry="12.5" style="stroke:#A80036;stroke-width:1.5;" width="63" x="534" y="256.4805"/><text fill="#000000" font-family="sans-serif" font-size="14" lengthAdjust="spacing" textLength="43" x="544" y="282.5244">LiteOS</text><path d="M484,216.9204 L494,216.9204 C509,216.9204 509,276.0405 524,276.0405 L534,276.0405 " fill="none" style="stroke:#A80036;stroke-width:1.0;"/><rect fill="#FEFECE" filter="url(#ffe1n7boy5g47)" height="39.1201" rx="12.5" ry="12.5" style="stroke:#A80036;stroke-width:1.5;" width="76" x="534" y="315.6006"/><text fill="#000000" font-family="sans-serif" font-size="14" lengthAdjust="spacing" textLength="56" x="544" y="341.6445">其他内核</text><path d="M484,216.9204 L494,216.9204 C509,216.9204 509,335.1606 524,335.1606 L534,335.1606 " fill="none" style="stroke:#A80036;stroke-width:1.0;"/><path d="M344,246.4805 L354,246.4805 C369,246.4805 369,216.9204 384,216.9204 L394,216.9204 " fill="none" style="stroke:#A80036;stroke-width:1.0;"/><rect fill="#FEFECE" filter="url(#ffe1n7boy5g47)" height="39.1201" rx="12.5" ry="12.5" style="stroke:#A80036;stroke-width:1.5;" width="90" x="394" y="374.7207"/><text fill="#000000" font-family="sans-serif" font-size="14" lengthAdjust="spacing" textLength="70" x="404" y="400.7646">驱动子系统</text><rect fill="#FEFECE" filter="url(#ffe1n7boy5g47)" height="39.1201" rx="12.5" ry="12.5" style="stroke:#A80036;stroke-width:1.5;" width="322" x="534" y="374.7207"/><text fill="#000000" font-family="sans-serif" font-size="14" lengthAdjust="spacing" textLength="302" x="544" y="400.7646">硬件驱动框架(HDF,Hardware Driver Framework)</text><rect fill="#FEFECE" filter="url(#ffe1n7boy5g47)" height="39.1201" rx="12.5" ry="12.5" style="stroke:#A80036;stroke-width:1.5;" width="416" x="906" y="374.7207"/><text fill="#000000" font-family="sans-serif" font-size="14" lengthAdjust="spacing" textLength="396" x="916" y="400.7646">硬件生态开放的基础:提供统一外设访问能力和驱动开发管理框架</text><path d="M856,394.2808 L866,394.2808 C881,394.2808 881,394.2808 896,394.2808 L906,394.2808 " fill="none" style="stroke:#A80036;stroke-width:1.0;"/><path d="M484,394.2808 L494,394.2808 C509,394.2808 509,394.2808 524,394.2808 L534,394.2808 " fill="none" style="stroke:#A80036;stroke-width:1.0;"/><path d="M344,246.4805 L354,246.4805 C369,246.4805 369,394.2808 384,394.2808 L394,394.2808 " fill="none" style="stroke:#A80036;stroke-width:1.0;"/><path d="M232,1221.9624 L242,1221.9624 C257,1221.9624 257,246.4805 272,246.4805 L282,246.4805 " fill="none" style="stroke:#A80036;stroke-width:1.0;"/><rect fill="#FEFECE" filter="url(#ffe1n7boy5g47)" height="39.1201" rx="12.5" ry="12.5" style="stroke:#A80036;stroke-width:1.5;" width="90" x="282" y="1054.6021"/><text fill="#000000" font-family="sans-serif" font-size="14" lengthAdjust="spacing" textLength="70" x="292" y="1080.646">系统服务层</text><rect fill="#FEFECE" filter="url(#ffe1n7boy5g47)" height="39.1201" rx="12.5" ry="12.5" style="stroke:#A80036;stroke-width:1.5;" width="118" x="422" y="1054.6021"/><text fill="#000000" font-family="sans-serif" font-size="14" lengthAdjust="spacing" textLength="98" x="432" y="1080.646">系统基础服务层</text><rect fill="#FEFECE" filter="url(#ffe1n7boy5g47)" height="39.1201" rx="12.5" ry="12.5" style="stroke:#A80036;stroke-width:1.5;" width="1342" x="590" y="433.8408"/><text fill="#000000" font-family="sans-serif" font-size="14" lengthAdjust="spacing" textLength="1322" x="600" y="459.8848">HarmonyOS的核心能力集合:包括面向各类设备的基础能力以及面向特定设备的专有能力,根据不同设备形态的部署环境,基础软件/增强软件/硬件服务子系统集内部,可按子系统粒度裁剪,子系统内部支持按功能粒度裁剪</text><path d="M540,1074.1621 L550,1074.1621 C565,1074.1621 565,453.4009 580,453.4009 L590,453.4009 " fill="none" style="stroke:#A80036;stroke-width:1.0;"/><rect fill="#FEFECE" filter="url(#ffe1n7boy5g47)" height="39.1201" rx="12.5" ry="12.5" style="stroke:#A80036;stroke-width:1.5;" width="160" x="590" y="729.4414"/><text fill="#000000" font-family="sans-serif" font-size="14" lengthAdjust="spacing" textLength="140" x="600" y="755.4854">系统基本能力子系统集</text><rect fill="#FEFECE" filter="url(#ffe1n7boy5g47)" height="39.1201" rx="12.5" ry="12.5" style="stroke:#A80036;stroke-width:1.5;" width="174" x="800" y="492.9609"/><text fill="#000000" font-family="sans-serif" font-size="14" lengthAdjust="spacing" textLength="154" x="810" y="519.0049">方舟多语言运行时子系统</text><path d="M750,749.0015 L760,749.0015 C775,749.0015 775,512.521 790,512.521 L800,512.521 " fill="none" style="stroke:#A80036;stroke-width:1.0;"/><rect fill="#FEFECE" filter="url(#ffe1n7boy5g47)" height="39.1201" rx="12.5" ry="12.5" style="stroke:#A80036;stroke-width:1.5;" width="104" x="800" y="552.0811"/><text fill="#000000" font-family="sans-serif" font-size="14" lengthAdjust="spacing" textLength="84" x="810" y="578.125">分布式软总线</text><path d="M750,749.0015 L760,749.0015 C775,749.0015 775,571.6411 790,571.6411 L800,571.6411 " fill="none" style="stroke:#A80036;stroke-width:1.0;"/><rect fill="#FEFECE" filter="url(#ffe1n7boy5g47)" height="39.1201" rx="12.5" ry="12.5" style="stroke:#A80036;stroke-width:1.5;" width="118" x="800" y="611.2012"/><text fill="#000000" font-family="sans-serif" font-size="14" lengthAdjust="spacing" textLength="98" x="810" y="637.2451">分布式数据管理</text><path d="M750,749.0015 L760,749.0015 C775,749.0015 775,630.7612 790,630.7612 L800,630.7612 " fill="none" style="stroke:#A80036;stroke-width:1.0;"/><rect fill="#FEFECE" filter="url(#ffe1n7boy5g47)" height="39.1201" rx="12.5" ry="12.5" style="stroke:#A80036;stroke-width:1.5;" width="118" x="800" y="670.3213"/><text fill="#000000" font-family="sans-serif" font-size="14" lengthAdjust="spacing" textLength="98" x="810" y="696.3652">分布式任务调度</text><path d="M750,749.0015 L760,749.0015 C775,749.0015 775,689.8813 790,689.8813 L800,689.8813 " fill="none" style="stroke:#A80036;stroke-width:1.0;"/><rect fill="#FEFECE" filter="url(#ffe1n7boy5g47)" height="39.1201" rx="12.5" ry="12.5" style="stroke:#A80036;stroke-width:1.5;" width="132" x="800" y="729.4414"/><text fill="#000000" font-family="sans-serif" font-size="14" lengthAdjust="spacing" textLength="112" x="810" y="755.4854">公共基础库子系统</text><path d="M750,749.0015 L760,749.0015 C775,749.0015 775,749.0015 790,749.0015 L800,749.0015 " fill="none" style="stroke:#A80036;stroke-width:1.0;"/><rect fill="#FEFECE" filter="url(#ffe1n7boy5g47)" height="39.1201" rx="12.5" ry="12.5" style="stroke:#A80036;stroke-width:1.5;" width="122" x="800" y="788.5615"/><text fill="#000000" font-family="sans-serif" font-size="14" lengthAdjust="spacing" textLength="98" x="810" y="814.6055">多模输入子系统</text><path d="M750,749.0015 L760,749.0015 C775,749.0015 775,808.1216 790,808.1216 L800,808.1216 " fill="none" style="stroke:#A80036;stroke-width:1.0;"/><rect fill="#FEFECE" filter="url(#ffe1n7boy5g47)" height="39.1201" rx="12.5" ry="12.5" style="stroke:#A80036;stroke-width:1.5;" width="90" x="800" y="847.6816"/><text fill="#000000" font-family="sans-serif" font-size="14" lengthAdjust="spacing" textLength="70" x="810" y="873.7256">图形子系统</text><path d="M750,749.0015 L760,749.0015 C775,749.0015 775,867.2417 790,867.2417 L800,867.2417 " fill="none" style="stroke:#A80036;stroke-width:1.0;"/><rect fill="#FEFECE" filter="url(#ffe1n7boy5g47)" height="39.1201" rx="12.5" ry="12.5" style="stroke:#A80036;stroke-width:1.5;" width="90" x="800" y="906.8018"/><text fill="#000000" font-family="sans-serif" font-size="14" lengthAdjust="spacing" textLength="70" x="810" y="932.8457">安全子系统</text><path d="M750,749.0015 L760,749.0015 C775,749.0015 775,926.3618 790,926.3618 L800,926.3618 " fill="none" style="stroke:#A80036;stroke-width:1.0;"/><rect fill="#FEFECE" filter="url(#ffe1n7boy5g47)" height="39.1201" rx="12.5" ry="12.5" style="stroke:#A80036;stroke-width:1.5;" width="74" x="800" y="965.9219"/><text fill="#000000" font-family="sans-serif" font-size="14" lengthAdjust="spacing" textLength="54" x="810" y="991.9658">AI子系统</text><path d="M750,749.0015 L760,749.0015 C775,749.0015 775,985.4819 790,985.4819 L800,985.4819 " fill="none" style="stroke:#A80036;stroke-width:1.0;"/><path d="M540,1074.1621 L550,1074.1621 C565,1074.1621 565,749.0015 580,749.0015 L590,749.0015 " fill="none" style="stroke:#A80036;stroke-width:1.0;"/><rect fill="#FEFECE" filter="url(#ffe1n7boy5g47)" height="39.1201" rx="12.5" ry="12.5" style="stroke:#A80036;stroke-width:1.5;" width="160" x="590" y="1143.2822"/><text fill="#000000" font-family="sans-serif" font-size="14" lengthAdjust="spacing" textLength="140" x="600" y="1169.3262">基础软件服务子系统集</text><rect fill="#FEFECE" filter="url(#ffe1n7boy5g47)" height="39.1201" rx="12.5" ry="12.5" style="stroke:#A80036;stroke-width:1.5;" width="118" x="800" y="1025.042"/><text fill="#000000" font-family="sans-serif" font-size="14" lengthAdjust="spacing" textLength="98" x="810" y="1051.0859">事件通知子系统</text><path d="M750,1162.8423 L760,1162.8423 C775,1162.8423 775,1044.6021 790,1044.6021 L800,1044.6021 " fill="none" style="stroke:#A80036;stroke-width:1.0;"/><rect fill="#FEFECE" filter="url(#ffe1n7boy5g47)" height="39.1201" rx="12.5" ry="12.5" style="stroke:#A80036;stroke-width:1.5;" width="90" x="800" y="1084.1621"/><text fill="#000000" font-family="sans-serif" font-size="14" lengthAdjust="spacing" textLength="70" x="810" y="1110.2061">电话子系统</text><path d="M750,1162.8423 L760,1162.8423 C775,1162.8423 775,1103.7222 790,1103.7222 L800,1103.7222 " fill="none" style="stroke:#A80036;stroke-width:1.0;"/><rect fill="#FEFECE" filter="url(#ffe1n7boy5g47)" height="39.1201" rx="12.5" ry="12.5" style="stroke:#A80036;stroke-width:1.5;" width="104" x="800" y="1143.2822"/><text fill="#000000" font-family="sans-serif" font-size="14" lengthAdjust="spacing" textLength="84" x="810" y="1169.3262">多媒体子系统</text><path d="M750,1162.8423 L760,1162.8423 C775,1162.8423 775,1162.8423 790,1162.8423 L800,1162.8423 " fill="none" style="stroke:#A80036;stroke-width:1.0;"/><rect fill="#FEFECE" filter="url(#ffe1n7boy5g47)" height="39.1201" rx="12.5" ry="12.5" style="stroke:#A80036;stroke-width:1.5;" width="89" x="800" y="1202.4023"/><text fill="#000000" font-family="sans-serif" font-size="14" lengthAdjust="spacing" textLength="69" x="810" y="1228.4463">DFX子系统</text><path d="M750,1162.8423 L760,1162.8423 C775,1162.8423 775,1221.9624 790,1221.9624 L800,1221.9624 " fill="none" style="stroke:#A80036;stroke-width:1.0;"/><rect fill="#FEFECE" filter="url(#ffe1n7boy5g47)" height="39.1201" rx="12.5" ry="12.5" style="stroke:#A80036;stroke-width:1.5;" width="129" x="800" y="1261.5225"/><text fill="#000000" font-family="sans-serif" font-size="14" lengthAdjust="spacing" textLength="109" x="810" y="1287.5664">MSDP&amp;DV子系统</text><path d="M750,1162.8423 L760,1162.8423 C775,1162.8423 775,1281.0825 790,1281.0825 L800,1281.0825 " fill="none" style="stroke:#A80036;stroke-width:1.0;"/><path d="M540,1074.1621 L550,1074.1621 C565,1074.1621 565,1162.8423 580,1162.8423 L590,1162.8423 " fill="none" style="stroke:#A80036;stroke-width:1.0;"/><rect fill="#FEFECE" filter="url(#ffe1n7boy5g47)" height="39.1201" rx="12.5" ry="12.5" style="stroke:#A80036;stroke-width:1.5;" width="160" x="590" y="1379.7627"/><text fill="#000000" font-family="sans-serif" font-size="14" lengthAdjust="spacing" textLength="140" x="600" y="1405.8066">增强软件服务子系统集</text><rect fill="#FEFECE" filter="url(#ffe1n7boy5g47)" height="39.1201" rx="12.5" ry="12.5" style="stroke:#A80036;stroke-width:1.5;" width="160" x="800" y="1320.6426"/><text fill="#000000" font-family="sans-serif" font-size="14" lengthAdjust="spacing" textLength="140" x="810" y="1346.6865">智慧屏专有业务子系统</text><path d="M750,1399.3228 L760,1399.3228 C775,1399.3228 775,1340.2026 790,1340.2026 L800,1340.2026 " fill="none" style="stroke:#A80036;stroke-width:1.0;"/><rect fill="#FEFECE" filter="url(#ffe1n7boy5g47)" height="39.1201" rx="12.5" ry="12.5" style="stroke:#A80036;stroke-width:1.5;" width="146" x="800" y="1379.7627"/><text fill="#000000" font-family="sans-serif" font-size="14" lengthAdjust="spacing" textLength="126" x="810" y="1405.8066">穿戴专有业务子系统</text><path d="M750,1399.3228 L760,1399.3228 C775,1399.3228 775,1399.3228 790,1399.3228 L800,1399.3228 " fill="none" style="stroke:#A80036;stroke-width:1.0;"/><rect fill="#FEFECE" filter="url(#ffe1n7boy5g47)" height="39.1201" rx="12.5" ry="12.5" style="stroke:#A80036;stroke-width:1.5;" width="141" x="800" y="1438.8828"/><text fill="#000000" font-family="sans-serif" font-size="14" lengthAdjust="spacing" textLength="121" x="810" y="1464.9268">IOT专有业务子系统</text><path d="M750,1399.3228 L760,1399.3228 C775,1399.3228 775,1458.4429 790,1458.4429 L800,1458.4429 " fill="none" style="stroke:#A80036;stroke-width:1.0;"/><path d="M540,1074.1621 L550,1074.1621 C565,1074.1621 565,1399.3228 580,1399.3228 L590,1399.3228 " fill="none" style="stroke:#A80036;stroke-width:1.0;"/><rect fill="#FEFECE" filter="url(#ffe1n7boy5g47)" height="39.1201" rx="12.5" ry="12.5" style="stroke:#A80036;stroke-width:1.5;" width="132" x="590" y="1586.6831"/><text fill="#000000" font-family="sans-serif" font-size="14" lengthAdjust="spacing" textLength="112" x="600" y="1612.7271">硬件服务子系统集</text><rect fill="#FEFECE" filter="url(#ffe1n7boy5g47)" height="39.1201" rx="12.5" ry="12.5" style="stroke:#A80036;stroke-width:1.5;" width="118" x="772" y="1498.0029"/><text fill="#000000" font-family="sans-serif" font-size="14" lengthAdjust="spacing" textLength="98" x="782" y="1524.0469">位置服务子系统</text><path d="M722,1606.2432 L732,1606.2432 C747,1606.2432 747,1517.563 762,1517.563 L772,1517.563 " fill="none" style="stroke:#A80036;stroke-width:1.0;"/><rect fill="#FEFECE" filter="url(#ffe1n7boy5g47)" height="39.1201" rx="12.5" ry="12.5" style="stroke:#A80036;stroke-width:1.5;" width="174" x="772" y="1557.123"/><text fill="#000000" font-family="sans-serif" font-size="14" lengthAdjust="spacing" textLength="154" x="782" y="1583.167">车机专有硬件服务子系统</text><path d="M722,1606.2432 L732,1606.2432 C747,1606.2432 747,1576.6831 762,1576.6831 L772,1576.6831 " fill="none" style="stroke:#A80036;stroke-width:1.0;"/><rect fill="#FEFECE" filter="url(#ffe1n7boy5g47)" height="39.1201" rx="12.5" ry="12.5" style="stroke:#A80036;stroke-width:1.5;" width="174" x="772" y="1616.2432"/><text fill="#000000" font-family="sans-serif" font-size="14" lengthAdjust="spacing" textLength="154" x="782" y="1642.2871">穿戴专有硬件服务子系统</text><path d="M722,1606.2432 L732,1606.2432 C747,1606.2432 747,1635.8032 762,1635.8032 L772,1635.8032 " fill="none" style="stroke:#A80036;stroke-width:1.0;"/><rect fill="#FEFECE" filter="url(#ffe1n7boy5g47)" height="39.1201" rx="12.5" ry="12.5" style="stroke:#A80036;stroke-width:1.5;" width="169" x="772" y="1675.3633"/><text fill="#000000" font-family="sans-serif" font-size="14" lengthAdjust="spacing" textLength="149" x="782" y="1701.4072">IOT专有硬件服务子系统</text><path d="M722,1606.2432 L732,1606.2432 C747,1606.2432 747,1694.9233 762,1694.9233 L772,1694.9233 " fill="none" style="stroke:#A80036;stroke-width:1.0;"/><path d="M540,1074.1621 L550,1074.1621 C565,1074.1621 565,1606.2432 580,1606.2432 L590,1606.2432 " fill="none" style="stroke:#A80036;stroke-width:1.0;"/><path d="M372,1074.1621 L382,1074.1621 C397,1074.1621 397,1074.1621 412,1074.1621 L422,1074.1621 " fill="none" style="stroke:#A80036;stroke-width:1.0;"/><path d="M232,1221.9624 L242,1221.9624 C257,1221.9624 257,1074.1621 272,1074.1621 L282,1074.1621 " fill="none" style="stroke:#A80036;stroke-width:1.0;"/><rect fill="#FEFECE" filter="url(#ffe1n7boy5g47)" height="39.1201" rx="12.5" ry="12.5" style="stroke:#A80036;stroke-width:1.5;" width="62" x="282" y="1852.7236"/><text fill="#000000" font-family="sans-serif" font-size="14" lengthAdjust="spacing" textLength="42" x="292" y="1878.7676">框架层</text><rect fill="#FEFECE" filter="url(#ffe1n7boy5g47)" height="39.1201" rx="12.5" ry="12.5" style="stroke:#A80036;stroke-width:1.5;" width="104" x="394" y="1734.4834"/><text fill="#000000" font-family="sans-serif" font-size="14" lengthAdjust="spacing" textLength="84" x="404" y="1760.5273">用户程序框架</text><rect fill="#FEFECE" filter="url(#ffe1n7boy5g47)" height="39.1201" rx="12.5" ry="12.5" style="stroke:#A80036;stroke-width:1.5;" width="252" x="548" y="1734.4834"/><text fill="#000000" font-family="sans-serif" font-size="14" lengthAdjust="spacing" textLength="232" x="558" y="1760.5273">Java,C,C++,JS编程语言用户程序框架</text><path d="M498,1754.0435 L508,1754.0435 C523,1754.0435 523,1754.0435 538,1754.0435 L548,1754.0435 " fill="none" style="stroke:#A80036;stroke-width:1.0;"/><path d="M344,1872.2837 L354,1872.2837 C369,1872.2837 369,1754.0435 384,1754.0435 L394,1754.0435 " fill="none" style="stroke:#A80036;stroke-width:1.0;"/><rect fill="#FEFECE" filter="url(#ffe1n7boy5g47)" height="39.1201" rx="12.5" ry="12.5" style="stroke:#A80036;stroke-width:1.5;" width="85" x="394" y="1793.6035"/><text fill="#000000" font-family="sans-serif" font-size="14" lengthAdjust="spacing" textLength="65" x="404" y="1819.6475">Ability框架</text><path d="M344,1872.2837 L354,1872.2837 C369,1872.2837 369,1813.1636 384,1813.1636 L394,1813.1636 " fill="none" style="stroke:#A80036;stroke-width:1.0;"/><rect fill="#FEFECE" filter="url(#ffe1n7boy5g47)" height="39.1201" rx="12.5" ry="12.5" style="stroke:#A80036;stroke-width:1.5;" width="60" x="394" y="1882.2837"/><text fill="#000000" font-family="sans-serif" font-size="14" lengthAdjust="spacing" textLength="40" x="404" y="1908.3276">UI框架</text><rect fill="#FEFECE" filter="url(#ffe1n7boy5g47)" height="39.1201" rx="12.5" ry="12.5" style="stroke:#A80036;stroke-width:1.5;" width="61" x="504" y="1852.7236"/><text fill="#000000" font-family="sans-serif" font-size="14" lengthAdjust="spacing" textLength="41" x="514" y="1878.7676">JavaUI</text><path d="M454,1901.8438 L464,1901.8438 C479,1901.8438 479,1872.2837 494,1872.2837 L504,1872.2837 " fill="none" style="stroke:#A80036;stroke-width:1.0;"/><rect fill="#FEFECE" filter="url(#ffe1n7boy5g47)" height="39.1201" rx="12.5" ry="12.5" style="stroke:#A80036;stroke-width:1.5;" width="97" x="504" y="1911.8438"/><text fill="#000000" font-family="sans-serif" font-size="14" lengthAdjust="spacing" textLength="77" x="514" y="1937.8877">JavaScriptUI</text><path d="M454,1901.8438 L464,1901.8438 C479,1901.8438 479,1931.4038 494,1931.4038 L504,1931.4038 " fill="none" style="stroke:#A80036;stroke-width:1.0;"/><path d="M344,1872.2837 L354,1872.2837 C369,1872.2837 369,1901.8438 384,1901.8438 L394,1901.8438 " fill="none" style="stroke:#A80036;stroke-width:1.0;"/><rect fill="#FEFECE" filter="url(#ffe1n7boy5g47)" height="39.1201" rx="12.5" ry="12.5" style="stroke:#A80036;stroke-width:1.5;" width="279" x="394" y="1970.9639"/><text fill="#000000" font-family="sans-serif" font-size="14" lengthAdjust="spacing" textLength="259" x="404" y="1997.0078">各种软硬件服务对外开放的多语言框架API</text><path d="M344,1872.2837 L354,1872.2837 C369,1872.2837 369,1990.5239 384,1990.5239 L394,1990.5239 " fill="none" style="stroke:#A80036;stroke-width:1.0;"/><path d="M232,1221.9624 L242,1221.9624 C257,1221.9624 257,1872.2837 272,1872.2837 L282,1872.2837 " fill="none" style="stroke:#A80036;stroke-width:1.0;"/><rect fill="#FEFECE" filter="url(#ffe1n7boy5g47)" height="39.1201" rx="12.5" ry="12.5" style="stroke:#A80036;stroke-width:1.5;" width="62" x="282" y="2177.8843"/><text fill="#000000" font-family="sans-serif" font-size="14" lengthAdjust="spacing" textLength="42" x="292" y="2203.9282">应用层</text><rect fill="#FEFECE" filter="url(#ffe1n7boy5g47)" height="39.1201" rx="12.5" ry="12.5" style="stroke:#A80036;stroke-width:1.5;" width="234" x="394" y="2030.084"/><text fill="#000000" font-family="sans-serif" font-size="14" lengthAdjust="spacing" textLength="214" x="404" y="2056.1279">系统应用:桌面,控制栏,设置,电话,...</text><path d="M344,2197.4443 L354,2197.4443 C369,2197.4443 369,2049.644 384,2049.644 L394,2049.644 " fill="none" style="stroke:#A80036;stroke-width:1.0;"/><rect fill="#FEFECE" filter="url(#ffe1n7boy5g47)" height="39.1201" rx="12.5" ry="12.5" style="stroke:#A80036;stroke-width:1.5;" width="76" x="394" y="2207.4443"/><text fill="#000000" font-family="sans-serif" font-size="14" lengthAdjust="spacing" textLength="56" x="404" y="2233.4883">三方应用</text><rect fill="#FEFECE" filter="url(#ffe1n7boy5g47)" height="39.1201" rx="12.5" ry="12.5" style="stroke:#A80036;stroke-width:1.5;" width="512" x="520" y="2089.2041"/><text fill="#000000" font-family="sans-serif" font-size="14" lengthAdjust="spacing" textLength="492" x="530" y="2115.248">支持基于框架层实现业务逻辑的原子化开发,构建以FA/PA为基础组成单元的应用</text><path d="M470,2227.0044 L480,2227.0044 C495,2227.0044 495,2108.7642 510,2108.7642 L520,2108.7642 " fill="none" style="stroke:#A80036;stroke-width:1.0;"/><rect fill="#FEFECE" filter="url(#ffe1n7boy5g47)" height="39.1201" rx="12.5" ry="12.5" style="stroke:#A80036;stroke-width:1.5;" width="438" x="520" y="2148.3242"/><text fill="#000000" font-family="sans-serif" font-size="14" lengthAdjust="spacing" textLength="414" x="530" y="2174.3682">FA/PA是HarmonyOS应用组成的基本单元,能够实现特定的业务功能</text><path d="M470,2227.0044 L480,2227.0044 C495,2227.0044 495,2167.8843 510,2167.8843 L520,2167.8843 " fill="none" style="stroke:#A80036;stroke-width:1.0;"/><rect fill="#FEFECE" filter="url(#ffe1n7boy5g47)" height="39.1201" rx="12.5" ry="12.5" style="stroke:#A80036;stroke-width:1.5;" width="161" x="520" y="2207.4443"/><text fill="#000000" font-family="sans-serif" font-size="14" lengthAdjust="spacing" textLength="141" x="530" y="2233.4883">FA(有UI界面,Entry FA)</text><path d="M470,2227.0044 L480,2227.0044 C495,2227.0044 495,2227.0044 510,2227.0044 L520,2227.0044 " fill="none" style="stroke:#A80036;stroke-width:1.0;"/><rect fill="#FEFECE" filter="url(#ffe1n7boy5g47)" height="39.1201" rx="12.5" ry="12.5" style="stroke:#A80036;stroke-width:1.5;" width="102" x="520" y="2266.5645"/><text fill="#000000" font-family="sans-serif" font-size="14" lengthAdjust="spacing" textLength="82" x="530" y="2292.6084">PA(无UI界面)</text><path d="M470,2227.0044 L480,2227.0044 C495,2227.0044 495,2286.1245 510,2286.1245 L520,2286.1245 " fill="none" style="stroke:#A80036;stroke-width:1.0;"/><rect fill="#FEFECE" filter="url(#ffe1n7boy5g47)" height="39.1201" rx="12.5" ry="12.5" style="stroke:#A80036;stroke-width:1.5;" width="144" x="520" y="2325.6846"/><text fill="#000000" font-family="sans-serif" font-size="14" lengthAdjust="spacing" textLength="124" x="530" y="2351.7285">FA,PA可按需要下载</text><path d="M470,2227.0044 L480,2227.0044 C495,2227.0044 495,2345.2446 510,2345.2446 L520,2345.2446 " fill="none" style="stroke:#A80036;stroke-width:1.0;"/><path d="M344,2197.4443 L354,2197.4443 C369,2197.4443 369,2227.0044 384,2227.0044 L394,2227.0044 " fill="none" style="stroke:#A80036;stroke-width:1.0;"/><path d="M232,1221.9624 L242,1221.9624 C257,1221.9624 257,2197.4443 272,2197.4443 L282,2197.4443 " fill="none" style="stroke:#A80036;stroke-width:1.0;"/><path d="M106,1192.4023 L116,1192.4023 C131,1192.4023 131,1221.9624 146,1221.9624 L156,1221.9624 " fill="none" style="stroke:#A80036;stroke-width:1.0;"/><!--MD5=[021d613c50733d8ce5994a4bca53da22]
@startmindmap

* HarmonyOS

** 系统功能

*** (系统,子系统,功能/模块)逐级展开,在多设备部署场景下支持根据实际需求裁剪某些非必要的子系统或功能模块

** 分层架构

*** 内核层

**** 内核子系统

***** 采用多内核设计,支持针对不同资源受限设备,选用合适的OS内核,为上层提供基础操作系统能力.

***** 内核抽象层(KAL,Kernel Abstract Layer)

***** Linux Kernel

***** LiteOS

***** 其他内核

**** 驱动子系统

***** 硬件驱动框架(HDF,Hardware Driver Framework)

****** 硬件生态开放的基础:提供统一外设访问能力和驱动开发管理框架

*** 系统服务层

**** 系统基础服务层

***** HarmonyOS的核心能力集合:包括面向各类设备的基础能力以及面向特定设备的专有能力,根据不同设备形态的部署环境,基础软件/增强软件/硬件服务子系统集内部,可按子系统粒度裁剪,子系统内部支持按功能粒度裁剪

***** 系统基本能力子系统集

****** 方舟多语言运行时子系统

****** 分布式软总线

****** 分布式数据管理

****** 分布式任务调度

****** 公共基础库子系统

****** 多模输入子系统 

****** 图形子系统

****** 安全子系统

****** AI子系统

***** 基础软件服务子系统集

****** 事件通知子系统

****** 电话子系统

****** 多媒体子系统

****** DFX子系统

****** MSDP&DV子系统

***** 增强软件服务子系统集

****** 智慧屏专有业务子系统

****** 穿戴专有业务子系统

****** IOT专有业务子系统

***** 硬件服务子系统集

****** 位置服务子系统

****** 车机专有硬件服务子系统

****** 穿戴专有硬件服务子系统

****** IOT专有硬件服务子系统

*** 框架层

**** 用户程序框架

***** Java,C,C++,JS编程语言用户程序框架

**** Ability框架

**** UI框架

***** JavaUI

***** JavaScriptUI

**** 各种软硬件服务对外开放的多语言框架API

*** 应用层

**** 系统应用:桌面,控制栏,设置,电话,...

**** 三方应用

***** 支持基于框架层实现业务逻辑的原子化开发,构建以FA/PA为基础组成单元的应用

***** FA/PA是HarmonyOS应用组成的基本单元,能够实现特定的业务功能 

***** FA(有UI界面,Entry FA)

***** PA(无UI界面)

***** FA,PA可按需要下载

@endmindmap

PlantUML version 1.2021.9(Sun Jul 25 18:13:56 CST 2021)
(GPL source distribution)
Java Runtime: OpenJDK Runtime Environment
JVM: OpenJDK 64-Bit Server VM
Default Encoding: GBK
Language: zh
Country: CN
--></g></svg>